<svg width="203" height="35" viewBox="0 0 203 35" fill="none" xmlns="http://www.w3.org/2000/svg">
<path d="M144.631 4.29736H159.094V6.75064H147.085V13.8013H156.206V16.2546H147.085V25.569H159.094V28.0223H144.631V4.30734V4.29736Z" fill="white"/>
<path d="M194.394 28.0223H191.7V6.75167H183.682V4.29736H202.484V6.75167H194.394V28.0223Z" fill="white"/>
<path d="M60.4196 22.7904L60.4007 22.7713L60.3817 22.7904C58.6194 24.6044 56.279 25.5973 53.7965 25.5973C51.314 25.5973 48.9926 24.6044 47.2302 22.8095C45.4773 21.0146 44.5109 18.6565 44.5109 16.1551C44.5109 13.6537 45.4679 11.2764 47.2018 9.49108C48.9547 7.69619 51.2951 6.71282 53.7965 6.71282C56.298 6.71282 58.6478 7.70574 60.4007 9.51017L60.4196 9.52927L62.1441 7.79166L62.1631 7.77257L62.1441 7.75347C59.8985 5.51941 56.9328 4.29736 53.806 4.29736C50.6792 4.29736 47.6851 5.53851 45.4394 7.78212C43.1844 10.0353 41.9431 13.0236 41.9431 16.1933C41.9431 19.363 43.1844 22.3512 45.4394 24.5853C47.6851 26.8003 50.6508 28.0223 53.806 28.0223C56.9612 28.0223 59.9269 26.8003 62.1726 24.5853L62.1915 24.5662L60.4291 22.7904H60.4196Z" fill="white"/>
<path d="M180.337 22.7904L180.317 22.7713L180.297 22.7904C178.408 24.6044 175.901 25.5973 173.241 25.5973C170.581 25.5973 168.094 24.6044 166.206 22.8095C164.328 21.0146 163.292 18.6565 163.292 16.1551C163.292 13.6537 164.318 11.2764 166.175 9.49108C168.053 7.69619 170.561 6.71282 173.241 6.71282C175.921 6.71282 178.439 7.70574 180.317 9.51017L180.337 9.52927L182.185 7.79166L182.205 7.77257L182.185 7.75347C179.779 5.51941 176.601 4.29736 173.251 4.29736C169.901 4.29736 166.693 5.53851 164.287 7.78212C161.871 10.0353 160.541 13.0236 160.541 16.1933C160.541 19.363 161.871 22.3512 164.287 24.5853C166.693 26.8003 169.871 28.0223 173.251 28.0223C176.632 28.0223 179.809 26.8003 182.215 24.5853L182.236 24.5662L180.347 22.7904H180.337Z" fill="white"/>
<path d="M111.556 4.29736V22.667L94.028 4.78602C93.8745 4.61649 93.6492 4.51676 93.4035 4.51676C92.9428 4.51676 92.564 4.88575 92.564 5.33452V28.0223H95.2771V9.74244L112.815 27.6134C112.969 27.773 113.184 27.8727 113.419 27.8727C113.88 27.8727 114.259 27.5037 114.259 27.055V4.30734H111.556V4.29736Z" fill="white"/>
<path d="M136.323 4.29736V22.667L119.964 4.78602C119.821 4.61649 119.611 4.51676 119.381 4.51676C118.951 4.51676 118.598 4.88575 118.598 5.33452V28.0223H121.13V9.74244L137.499 27.6134C137.642 27.773 137.843 27.8727 138.062 27.8727C138.492 27.8727 138.846 27.5037 138.846 27.055V4.30734H136.323V4.29736Z" fill="white"/>
<path d="M77.3776 28.0223C70.6008 28.0223 65.084 22.699 65.084 16.1598C65.084 9.62064 70.6008 4.29736 77.3776 4.29736C84.1545 4.29736 89.6713 9.62064 89.6713 16.1598C89.6713 22.699 84.1545 28.0223 77.3776 28.0223ZM77.3776 6.73879C71.9998 6.73879 67.6142 10.961 67.6142 16.1598C67.6142 21.3587 71.9899 25.5809 77.3776 25.5809C82.7654 25.5809 87.1411 21.3587 87.1411 16.1598C87.1411 10.961 82.7654 6.73879 77.3776 6.73879Z" fill="white"/>
<path d="M20.1542 6.47324V0.110352C12.4749 0.110352 6.2265 6.51797 6.21558 14.3793H12.4312C12.4312 10.0181 15.894 6.48442 20.1542 6.47324Z" fill="#84B9A5"/>
<path d="M13.9387 28.6368V34.9997C21.6181 34.9997 27.8664 28.5921 27.8774 20.7307H21.6618C21.6618 25.0919 18.199 28.6256 13.9387 28.6368Z" fill="#D8808F"/>
<path d="M27.8774 20.7309H34.0929C34.0929 12.8695 27.8337 6.4731 20.1543 6.46191V12.8248C24.4145 12.8248 27.8664 16.3697 27.8774 20.7309Z" fill="#A68693"/>
<path d="M6.21559 14.3796H0C0 22.241 6.25928 28.6374 13.9386 28.6486V22.2857C9.6784 22.2857 6.22651 18.7408 6.21559 14.3796Z" fill="#F8B5BA"/>
</svg>
