<svg width="24" height="24" viewBox="0 0 24 24" fill="none" xmlns="http://www.w3.org/2000/svg">
<g clip-path="url(#clip0_201_12)">
<rect width="24" height="24" fill="none"/>
<path d="M10.5 6.00006H12V12.0001H10.5V6.00006ZM6 9.00006H0V3.00006H1.5V6.21099C2.02344 5.25006 2.66016 4.38678 3.41016 3.62115C4.16016 2.85553 4.98828 2.20709 5.89453 1.67584C6.80078 1.14459 7.77344 0.730525 8.8125 0.43365C9.85156 0.136775 10.9141 -0.00775616 12 5.63402e-05C13.1016 5.63402e-05 14.1641 0.140681 15.1875 0.421931C16.2109 0.703181 17.168 1.10553 18.0586 1.62896C18.9492 2.1524 19.7578 2.7774 20.4844 3.50396C21.2109 4.23053 21.8359 5.04303 22.3594 5.94146C22.8828 6.8399 23.2852 7.79693 23.5664 8.81256C23.8477 9.82818 23.9922 10.8907 24 12.0001H22.5C22.5 11.0391 22.375 10.1133 22.125 9.22271C21.875 8.33209 21.5234 7.49615 21.0703 6.7149C20.6172 5.93365 20.0664 5.22271 19.418 4.58209C18.7695 3.94146 18.0625 3.39459 17.2969 2.94146C16.5312 2.48834 15.6953 2.13287 14.7891 1.87506C13.8828 1.61724 12.9531 1.49224 12 1.50006C10.9922 1.50006 10.0117 1.64068 9.05859 1.92193C8.10547 2.20318 7.21875 2.60553 6.39844 3.12896C5.57812 3.6524 4.83203 4.28131 4.16016 5.01568C3.48828 5.75006 2.94141 6.57818 2.51953 7.50006H6V9.00006ZM12 13.5001H24V15.0001H12V13.5001ZM12 18.0001H24V19.5001H12V18.0001ZM12 22.5001H24V24.0001H12V22.5001ZM1.88672 14.8008C2.16797 15.8087 2.57812 16.7422 3.11719 17.6016C3.65625 18.461 4.30469 19.2188 5.0625 19.8751C5.82031 20.5313 6.65625 21.0782 7.57031 21.5157C8.48438 21.9532 9.46094 22.2422 10.5 22.3829V23.9063C9.29688 23.7422 8.15625 23.418 7.07812 22.9337C6 22.4493 5.02344 21.8321 4.14844 21.0821C3.27344 20.3321 2.51953 19.4571 1.88672 18.4571C1.25391 17.4571 0.773438 16.3712 0.445312 15.1993L1.88672 14.8008Z" fill="black"/>
</g>
<defs>
<clipPath id="clip0_201_12">
<rect width="24" height="24" fill="none"/>
</clipPath>
</defs>
</svg>
